<svg id="Capa_1" enable-background="new 0 0 497 497" height="512" viewBox="0 0 497 497" width="512" xmlns="http://www.w3.org/2000/svg"><g><path d="m477.716 268.755-127.995-198.134c-22.198-34.362-60.313-55.116-101.221-55.116-40.908 0-79.023 20.754-101.221 55.116l-127.995 198.134c-12.588 19.486-19.284 42.191-19.284 65.389v13.633c0 66.553 53.952 120.505 120.505 120.505h255.99c66.553 0 120.505-53.952 120.505-120.505v-13.633c0-23.198-6.696-45.903-19.284-65.389z" fill="#dcdcdc"/><path d="m106.648 269.808c0-107.183 47.922-200.938 119.479-252.206-32.116 6.067-60.764 25.025-78.848 53.019l-127.995 198.134c-12.588 19.486-19.284 42.191-19.284 65.389v13.633c0 66.553 53.952 120.505 120.505 120.505h50.594c-40.017-52.265-64.451-121.946-64.451-198.474z" fill="#cececc"/><path d="m345.107 241.897h-193.214c-30.675 0-55.543 24.867-55.543 55.543v159.875c0 13.247 10.657 24.156 23.904 24.181h.247 255.997.247c13.247-.024 23.904-10.934 23.904-24.181v-159.876c0-30.675-24.867-55.542-55.542-55.542z" fill="#6a647f"/><g><g><g><ellipse cx="148.732" cy="185.322" fill="#ff8997" rx="36.812" ry="29.316"/></g><g><ellipse cx="348.268" cy="185.322" fill="#ff8997" rx="36.812" ry="29.316"/></g></g></g><g><path d="m187.709 160.922c-4.142 0-7.5-3.358-7.5-7.5 0-5.526-4.496-10.022-10.022-10.022s-10.022 4.496-10.022 10.022c0 4.142-3.358 7.5-7.5 7.5s-7.5-3.358-7.5-7.5c0-13.797 11.225-25.022 25.022-25.022s25.022 11.225 25.022 25.022c0 4.142-3.358 7.5-7.5 7.5z" fill="#423e4f"/></g><g><path d="m344.335 160.922c-4.142 0-7.5-3.358-7.5-7.5 0-5.526-4.496-10.022-10.022-10.022s-10.022 4.496-10.022 10.022c0 4.142-3.358 7.5-7.5 7.5s-7.5-3.358-7.5-7.5c0-13.797 11.225-25.022 25.022-25.022s25.022 11.225 25.022 25.022c0 4.142-3.357 7.5-7.5 7.5z" fill="#423e4f"/></g><g><path d="m248.5 189.869c-9.29 0-18.125-4.024-24.24-11.04-2.722-3.123-2.396-7.86.726-10.582s7.86-2.397 10.582.726c3.266 3.747 7.979 5.896 12.933 5.896s9.667-2.149 12.933-5.896c2.721-3.123 7.458-3.448 10.582-.726 3.123 2.721 3.448 7.459.726 10.582-6.116 7.016-14.952 11.04-24.242 11.04z" fill="#423e4f"/></g><path d="m106.648 269.808c0-1.549.029-3.089.049-4.633-6.505 9.096-10.346 20.228-10.346 32.264v159.875c0 13.247 10.657 24.157 23.904 24.181h.247 61.367c-46.363-53.427-75.221-128.514-75.221-211.687z" fill="#5c586f"/></g></svg>